HIERARCHY
ROOT Pelvis
{
	OFFSET 0.000000 0.941512 0.000000
	CHANNELS 6 Xposition Yposition Zposition Zrotation Yrotation Xrotation 
	JOINT Pelvis_L_Hip
	{
		OFFSET 0.000000 0.000000 0.000000
		CHANNELS 3 Zrotation Yrotation Xrotation
		JOINT L_Hip
		{
			OFFSET 0.062321 -0.080322 -0.016990
			CHANNELS 3 Zrotation Yrotation Xrotation
			JOINT L_Knee
			{
				OFFSET 0.093051 -0.381305 -0.029784
				CHANNELS 3 Zrotation Yrotation Xrotation
				JOINT L_Ankle
				{
					OFFSET -0.010371 -0.431000 -0.033614
					CHANNELS 3 Zrotation Yrotation Xrotation
					End Site #name: L_Foot
					{
						OFFSET 0.069299 -0.038670 0.119418
					}
				}
			}
		}
	}
	JOINT Pelvis_R_Hip
	{
		OFFSET 0.000000 0.000000 0.000000
		CHANNELS 3 Zrotation Yrotation Xrotation
		JOINT R_Hip
		{
			OFFSET -0.055334 -0.094904 -0.002373
			CHANNELS 3 Zrotation Yrotation Xrotation
			JOINT R_Knee
			{
				OFFSET -0.064207 -0.384370 -0.019592
				CHANNELS 3 Zrotation Yrotation Xrotation
				JOINT R_Ankle
				{
					OFFSET 0.025418 -0.419734 -0.065953
					CHANNELS 3 Zrotation Yrotation Xrotation
					End Site #name: R_Foot
					{
						OFFSET -0.057233 -0.039888 0.132134
					}
				}
			}
		}
	}
	JOINT Pelvis_Spine1
	{
		OFFSET 0.000000 0.000000 0.000000
		CHANNELS 3 Zrotation Yrotation Xrotation
		JOINT Spine1
		{
			OFFSET -0.005562 0.124093 -0.043360
			CHANNELS 3 Zrotation Yrotation Xrotation
			JOINT Spine2
			{
				OFFSET 0.012244 0.139499 0.029894
				CHANNELS 3 Zrotation Yrotation Xrotation
				JOINT Spine3
				{
					OFFSET -0.002556 0.056561 0.009225
					CHANNELS 3 Zrotation Yrotation Xrotation
					JOINT Spine3_Neck
					{
						OFFSET 0.000000 0.000000 0.000000
						CHANNELS 3 Zrotation Yrotation Xrotation
						JOINT Neck
						{
							OFFSET -0.005205 0.217920 -0.024551
							CHANNELS 3 Zrotation Yrotation Xrotation
							End Site #name: Head
							{
								OFFSET 0.002365 0.091850 0.046637
							}
						}
					}
					JOINT Spine3_L_Collar
					{
						OFFSET 0.000000 0.000000 0.000000
						CHANNELS 3 Zrotation Yrotation Xrotation
						JOINT L_Collar
						{
							OFFSET 0.072225 0.116603 -0.009480
							CHANNELS 3 Zrotation Yrotation Xrotation
							JOINT L_Shoulder
							{
								OFFSET 0.115937 -0.058643 -0.021018
								CHANNELS 3 Zrotation Yrotation Xrotation
								JOINT L_Elbow
								{
									OFFSET 0.021994 -0.254722 -0.024492
									CHANNELS 3 Zrotation Yrotation Xrotation
									End Site #name: L_Wrist
									{
										OFFSET 0.048810 -0.240214 0.103329
									}
								}
							}
						}
					}
					JOINT Spine3_R_Collar
					{
						OFFSET 0.000000 0.000000 0.000000
						CHANNELS 3 Zrotation Yrotation Xrotation
						JOINT R_Collar
						{
							OFFSET -0.073372 0.120704 -0.024611
							CHANNELS 3 Zrotation Yrotation Xrotation
							JOINT R_Shoulder
							{
								OFFSET -0.108089 -0.054969 -0.020504
								CHANNELS 3 Zrotation Yrotation Xrotation
								JOINT R_Elbow
								{
									OFFSET -0.033684 -0.260739 0.009889
									CHANNELS 3 Zrotation Yrotation Xrotation
									End Site #name: R_Wrist
									{
										OFFSET -0.067980 -0.232763 0.118463
									}
								}
							}
						}
					}
				}
			}
		}
	}
}
MOTION
Frames: 7
Frame Time: 0.041667
0.000000 0.939522 0.000000 -5.657554 6.940886 9.669029 0.000000 0.000000 0.000000 5.845064 -1.423781 -4.480598 3.076191 -0.128797 -1.906912 5.228749 19.920544 4.676330 0.000000 0.000000 0.000000 4.849563 1.949179 -10.633754 -0.805939 0.113878 -0.289934 3.041121 5.948990 2.928098 0.000000 0.000000 0.000000 10.925476 -0.489486 -10.780661 -13.881553 -0.044062 -12.932193 -6.446102 -0.141864 7.627679 0.000000 0.000000 0.000000 17.975903 -19.358953 31.921571 0.000000 0.000000 0.000000 32.068991 -4.066257 4.340293 -16.369037 5.833483 16.703892 -3.910359 -5.586465 -15.057752 0.000000 0.000000 0.000000 -81.915681 1.876038 24.274548 -53.778065 -1.866764 0.661589 -126.345731 -24.842745 38.595805 
0.000295 0.939559 0.000457 -5.651212 6.927805 9.626868 0.000000 0.000000 0.000000 5.821148 -1.412443 -4.429379 3.088276 -0.130746 -1.881507 5.218311 19.886794 4.665176 0.000000 0.000000 0.000000 4.839850 1.934362 -10.562422 -0.813168 0.114454 -0.298788 3.049360 5.972523 2.929607 0.000000 0.000000 0.000000 10.918077 -0.502132 -10.703817 -13.872680 -0.040644 -12.912662 -6.441659 -0.142455 7.740905 0.000000 0.000000 0.000000 17.996259 -19.264072 31.614662 0.000000 0.000000 0.000000 32.047456 -3.985253 4.406905 -16.421404 5.776265 16.405491 -3.848229 -5.590506 -15.214859 0.000000 0.000000 0.000000 -81.856155 1.718495 24.559265 -53.869114 -1.984230 0.333436 -126.357865 -23.330767 39.980826 
0.000397 0.940123 0.000739 -5.618199 6.876567 9.559287 0.000000 0.000000 0.000000 5.747258 -1.396437 -4.373119 3.147195 -0.136009 -1.845856 5.192135 19.860285 4.693741 0.000000 0.000000 0.000000 4.874156 1.929376 -10.532883 -0.895962 0.129761 -0.268004 3.063031 6.014679 2.928979 0.000000 0.000000 0.000000 10.843140 -0.534089 -10.468449 -13.919868 -0.089171 -13.195272 -6.526418 -0.285686 7.810228 0.000000 0.000000 0.000000 18.037267 -19.268102 31.643290 0.000000 0.000000 0.000000 32.086474 -4.045490 4.318184 -16.277451 5.816662 16.728329 -4.084325 -5.757728 -15.296455 0.000000 0.000000 0.000000 -81.665853 1.443597 25.106371 -54.196593 -2.561505 -1.269026 -130.746468 -25.301938 39.240850 
0.000662 0.940351 0.000483 -5.638846 6.552804 9.540612 0.000000 0.000000 0.000000 5.647924 -1.377967 -4.319798 3.285806 -0.147096 -1.803921 5.275241 19.998783 4.654243 0.000000 0.000000 0.000000 4.877174 1.971749 -10.737754 -0.869036 0.140922 -0.024234 3.069207 6.214270 2.792313 0.000000 0.000000 0.000000 10.865620 -0.615759 -10.054410 -13.904065 -0.056961 -13.060224 -6.441647 -0.204614 6.794059 0.000000 0.000000 0.000000 17.889186 -19.233605 32.138780 0.000000 0.000000 0.000000 32.029242 -5.193352 3.208019 -16.279094 6.235970 18.527186 -4.115728 -5.900632 -15.712917 0.000000 0.000000 0.000000 -82.618087 2.290837 24.310126 -55.774373 -3.069907 -2.474052 -149.059156 -29.939440 39.978166 
0.001349 0.939658 0.001097 -5.696154 6.170584 9.695378 0.000000 0.000000 0.000000 5.629117 -1.373483 -4.308292 3.412159 -0.144748 -2.013570 5.349328 20.145504 4.640196 0.000000 0.000000 0.000000 4.802780 1.966604 -10.728074 -0.635217 0.071955 -0.506793 3.227211 6.522140 2.915031 0.000000 0.000000 0.000000 10.986022 -0.686148 -9.799187 -13.728121 -0.088585 -13.255156 -6.495089 0.314950 6.054846 0.000000 0.000000 0.000000 17.545784 -18.849879 31.919100 0.000000 0.000000 0.000000 33.112143 -5.508963 3.201078 -17.019581 6.391728 18.328447 -4.274328 -5.993781 -15.681409 0.000000 0.000000 0.000000 -82.775000 2.689182 23.577220 -59.821876 -3.396555 -2.797401 -156.146829 -17.995045 47.663480 
0.001839 0.940194 0.001963 -5.616070 6.430948 9.882794 0.000000 0.000000 0.000000 5.598586 -1.444827 -4.688789 3.436517 -0.152053 -1.888108 5.250616 20.005935 4.712300 0.000000 0.000000 0.000000 4.801667 1.988044 -10.836732 -0.711952 0.072992 -0.685104 3.237343 6.288688 3.107287 0.000000 0.000000 0.000000 10.752093 -0.584091 -10.162692 -13.792067 -0.079433 -13.181331 -6.705463 0.305649 6.193221 0.000000 0.000000 0.000000 18.017737 -19.609448 32.545145 0.000000 0.000000 0.000000 32.882764 -4.424944 4.228844 -16.618363 5.996362 17.201366 -2.987584 -5.455737 -16.646279 0.000000 0.000000 0.000000 -82.036173 1.841560 24.785857 -60.293088 -3.447517 -2.871338 -154.410281 -19.211773 46.843919 
0.002007 0.940150 0.002826 -5.537908 6.745639 9.608744 0.000000 0.000000 0.000000 5.560482 -1.411583 -4.523376 3.464038 -0.156312 -1.817572 5.198086 19.694917 4.519268 0.000000 0.000000 0.000000 4.824947 1.955835 -10.670360 -0.812632 0.114970 -0.286807 3.037174 6.104956 2.803882 0.000000 0.000000 0.000000 10.515666 -0.601115 -9.845542 -13.795233 -0.159420 -13.575081 -6.213308 0.339180 6.310249 0.000000 0.000000 0.000000 17.608798 -19.316273 32.631112 0.000000 0.000000 0.000000 32.264728 -4.881819 3.713753 -16.773840 6.205510 17.849638 -1.986089 -4.885342 -16.865559 0.000000 0.000000 0.000000 -83.029796 2.198977 24.633986 -59.172241 -3.570511 -3.333635 -155.149683 -26.740690 42.951258 
